<svg width="64" height="80" viewBox="0 0 64 80" fill="none" xmlns="http://www.w3.org/2000/svg">
  <path d="M32 0C14.327 0 0 14.327 0 32C0 56 32 80 32 80C32 80 64 56 64 32C64 14.327 49.673 0 32 0Z" fill="#104A8A"/>
  <circle cx="32" cy="32" r="18" fill="white"/>
  <path d="M23.5 42C23.5 42 20.5 29 33 21C45 13 45.5 20 45.5 20C45.5 20 45.5 32 35.5 40.5C27.5 47 23.5 42 23.5 42Z" fill="#56B947"/>
  <path d="M23.5 42C23.5 42 25 35 32 31.5" stroke="white" strokeWidth="1.5" strokeLinecap="round"/>
</svg>